# xmcd
#
# Track frame offsets: 
#        150
#        16006
#        28919
#        43245
#        58786
#        75728
#        90284
#        106296
#        120318
#        137234
#        153978
#        169287
#        181753
#
# Disc length: 2617 seconds
#
# Revision: 2
# Processed by: cddbd v1.5.1PL0 Copyright (c) Steve Scherf et al.
# Submitted via: ExactAudioCopy v0.90b4
#
DISCID=9d0a370d
DTITLE=Jody Jenkins - Dancin' The Night Away
DYEAR=1900
DGENRE=Country
TTITLE0=Every Single Thing
TTITLE1=Walkin' The Floor (Over Her Again)
TTITLE2=Baby's Back In Town
TTITLE3=Dancin' The Night Away
TTITLE4=Daddy Never Had A Broken Heart
TTITLE5=Me And Margarita
TTITLE6=Louisiana Heatwave
TTITLE7=Tell Me It Ain't True
TTITLE8=Country Dance Floor
TTITLE9=Cowboy Cumbia
TTITLE10=The Promise
TTITLE11=The Presidents
TTITLE12=Just Me And You
EXTD=
EXTT0=
EXTT1=
EXTT2=
EXTT3=
EXTT4=
EXTT5=
EXTT6=
EXTT7=
EXTT8=
EXTT9=
EXTT10=
EXTT11=
EXTT12=
PLAYORDER=
